<?xml version="1.0" encoding="UTF-8" standalone="no"?>
<svg
   viewBox="0 0 500 500"
   version="1.1"
   id="svg71"
   sodipodi:docname="foxtales-min.svg"
   inkscape:version="1.2.1 (9c6d41e, 2022-07-14)"
   xmlns:inkscape="http://www.inkscape.org/namespaces/inkscape"
   xmlns:sodipodi="http://sodipodi.sourceforge.net/DTD/sodipodi-0.dtd"
   xmlns="http://www.w3.org/2000/svg"
   xmlns:svg="http://www.w3.org/2000/svg">
  <defs
     id="defs75" />
  <sodipodi:namedview
     id="namedview73"
     pagecolor="#ffffff"
     bordercolor="#000000"
     borderopacity="0.25"
     inkscape:showpageshadow="2"
     inkscape:pageopacity="0.0"
     inkscape:pagecheckerboard="0"
     inkscape:deskcolor="#d1d1d1"
     showgrid="false"
     inkscape:zoom="1.754"
     inkscape:cx="250.57013"
     inkscape:cy="250.57013"
     inkscape:window-width="1390"
     inkscape:window-height="1027"
     inkscape:window-x="0"
     inkscape:window-y="25"
     inkscape:window-maximized="0"
     inkscape:current-layer="g69" />
  <g
     fill-rule="evenodd"
     id="g69">
    <path
       fill="#f89c1b"
       d="m 272.8,65.97 c -0.28621,14.377805 -24.49976,12.849512 -16.1821,31.667979 -3.53333,20.291091 11.41462,7.813821 19.4651,1.252021 5.36735,-3.887103 16.8103,-9.269085 10.67925,-16.645844 C 283.30179,76.341685 278.22759,68.739663 272.754,66.018 m 35.4,4.28 c 7.19659,2.317318 21.00826,8.204566 18.447,9.268 -0.70206,1.922382 8.7709,8.452291 8.1525,7.297375 21.71884,19.499385 30.23422,52.637925 20.96922,80.198785 -1.31189,-22.185 -9.59421,-44.36312 -25.95072,-59.84516 3.91507,-2.52764 -10.90323,-11.715607 -15.794,-12.936 -16.9041,-8.213409 9.36026,9.46943 5.991,10.235 8.09546,9.44437 7.0321,7.21246 11.76975,16.88075 13.19909,25.28125 10.61704,56.56386 -2.7635,81.31375 -1.13858,4.01543 -13.21801,21.87615 -2.442,6.09525 -1.69025,8.64655 -1.00702,24.47209 -0.82138,36.18875 5.14083,1.28696 -5.56805,8.50099 -2.70787,8.4455 0.35893,-1.05197 5.3418,-3.51974 7.961,-5.492 12.9237,-10.83591 30.61575,-22.08369 36.3907,-40.08432 8.49322,-13.02396 8.99473,-35.07551 13.2703,-45.60168 7.75245,-0.66228 8.89064,3.31874 7.85781,-11.69413 C 388.17514,117.19406 364.39103,88.486384 333.98,77.096 c -8.32377,-3.271519 -17.04775,-6.163677 -26,-6.878 M 165.39,77.6 c -1.33041,5.917183 8.24869,38.59042 7.16964,20.955937 2.60688,-10.899943 1.09235,-21.366164 -7.38523,-24.874265 0.0719,1.30611 0.14373,2.612219 0.21559,3.918328 z m 93.47,-1.92 c -1.25664,6.381778 1.94728,-5.587824 -0.006,0 M 175.2,83.35 c 2.3555,2.177537 0.79207,-1.281769 -0.007,-0.003 m 13.6,5.44 c 4.07584,9.458082 3.67689,28.1807 2.66738,40.72925 5.07391,7.95466 -9.1943,22.9088 -4.47659,35.36159 1.0354,14.54769 8.29071,27.70642 9.75596,41.56541 9.17694,2.87024 -5.67602,-6.86996 8.14675,-1.002 14.06876,12.31673 3.7489,-14.18206 20.1955,-14.12425 9.99449,-1.64593 20.37748,-16.75155 21.4245,-17.97075 -0.0185,17.42508 -19.45744,22.39418 -28.73738,30.80125 -8.50518,9.20696 1.40395,4.66237 8.78288,8.7315 9.70524,3.02929 22.55377,6.85053 22.221,9.515 3.92573,-1.80674 12.28742,-8.1231 20.092,-10.422 -13.63986,-0.61972 18.2745,-4.74867 26.22293,-2.13165 7.73602,1.53744 18.29951,5.41572 6.16244,-4.01232 -7.18337,-8.72446 -28.4938,-15.598 -30.37389,-20.15333 14.05804,-0.69033 28.03454,3.07399 40.34852,9.7283 -2.65716,-9.20929 -36.83,-17.18944 -12.12828,-13.78072 8.06182,3.976 16.52597,8.1308 6.37344,-2.17873 -3.427,-9.71498 -33.98981,-6.51704 -16.21516,-11.19755 -8.58195,-4.41436 -27.69092,-1.44733 -29.79,-1.71163 11.45045,-10.16802 38.70397,-6.0096 44.09549,-6.68293 6.79273,1.65686 -2.79639,-4.34248 -7.37224,-4.20119 -3.77619,-2.76972 -20.75868,-3.35285 -7.04525,-5.29625 -10.58132,0.34098 -20.37182,-6.39356 -29.921,-8.242 -5.16469,-3.45012 -5.55318,-1.18654 -11.273,-1.162 -7.39513,5.16915 -1.94956,-6.3656 -9.823,-3.9 -2.63787,-4.94486 -5.01964,7.599 -9.31416,0.17034 3.46206,-12.90989 -6.39986,-6.89847 -14.15696,-11.36984 -0.24603,-2.43024 -15.7975,-5.60173 -8.96188,-0.3255 -4.99045,-2.78308 -4.266,2.65177 -5.966,-1.968 5.35959,-7.13095 9.45565,-28.983038 -0.36762,-33.36525 -3.59822,-0.320694 -7.12444,-1.390457 -10.72438,-1.57775 m -15.29,18.17 c -1.02808,4.07466 2.11881,-0.90795 -0.015,-0.007 M 393.6,117.84 c 13.41892,29.74171 5.82442,65.1653 -13.87837,90.27069 -8.55798,11.64733 -20.04938,24.65838 -30.05963,32.73331 -3.38259,4.74178 -7.99362,5.8682 -8.667,8.85 -10.01168,8.83658 -4.91387,6.06381 -0.954,7.455 -2.03111,10.73802 -3.40526,22.07891 -16.969,21.83 -9.89837,4.8873 -37.22271,3.81711 -39.64903,5.54432 20.47988,4.99719 44.18205,5.36708 63.43903,-0.34332 5.5946,-1.50731 6.13288,-0.9794 9.55,-4.779 0.44479,-8.47052 8.09805,-17.65865 14.354,-23.484 38.32862,-30.85582 51.81134,-89.21325 28.30625,-132.89375 0.12105,-1.86531 -4.7341,-6.42741 -5.51025,-5.31525 M 213.2,127.2 c 1.90905,1.36133 -4.99477,-1.04306 0,0 z m 24.43,6.64 c -2.38599,3.44347 4.11807,-3.61043 -0.003,-0.01 m 12.93,8 c 2.07448,2.18052 -2.71418,-0.6321 -0.008,0 m -2.36,0.957 c -1.56127,1.46125 -1.56127,-1.46125 0,0 z m 6.46,0.2 c -1.75743,1.70959 -2.91091,-2.3587 0,0 z m 3.71,0.84 c 0.97069,2.69345 -6.11861,-3.31268 0.001,0.001 m 51.34,20.76 c 2.17091,2.36366 5.00772,3.36203 5.748,4.794 5.38171,3.86305 -4.80637,-6.34619 -5.787,-4.814 M 441.2,196 c 0.81036,37.44515 -27.2305,68.69696 -59.93856,83.19987 -14.78607,7.29859 -31.00434,12.53694 -46.89556,15.66688 -6.60985,2.52426 -2.49054,2.80095 0.42212,4.66225 3.72624,-2.54909 4.77122,14.58944 -1.953,18.786 -3.17658,3.18909 -29.59017,0.46017 -40.40125,-3.99734 -8.40872,-1.3667 -26.42943,-13.6079 -27.90906,-12.66283 11.99611,13.49585 29.68324,24.80766 45.42431,30.09217 11.63953,-2.90874 24.3481,-6.47951 36.27,-10.275 4.82035,-4.11513 18.39618,-6.23027 28.28,-11.113 44.98806,-18.26867 72.55008,-68.8037 67.778,-116.333 -0.22594,-3.37068 -2.75072,-3.11104 -1.178,1.93 m -110.09,4.8 c -1.79395,2.338 0.80359,-3.15308 -0.006,-0.007 m -0.38,1.98 c -1.68414,2.10239 -1.45109,-1.69246 -0.009,-0.009 m -134.93,7.42 c 0.89438,13.89234 0.31373,-13.95817 0,0 z m 23.99,-1.16 c 7.76668,1.87628 -5.83287,-0.83803 -0.02,0.003 m 6.61,1.56 c -3.95933,2.24623 -3.33202,-2.11164 0,-0.01 m 100.79,3.29 c -0.94603,2.86224 -2.72906,-0.94034 0,0 z m -6.93,4.51 c -1.62927,4.07413 2.53598,-3.90714 -0.001,0 m -72.94,5.78 c -3.84565,4.78812 4.49559,-4.34831 0.01,0 m 69.74,-0.412 c -3.85834,5.51648 1.82276,-0.99182 -0.007,-0.01 m -73.87,4.15 c -9.22704,9.39461 5.23434,-4.07428 0.01,-0.005 m 69.91,2.25 c -6.17763,10.53973 6.93825,-10.13641 0,-0.01 m -204.89,-0.425 c -28.334196,3.76753 -49.351319,32.21496 -50.25,59.71 2.542159,-10.49541 9.279936,-31.97924 22.435,-40.676 13.135784,-10.54826 30.16094,-10.97799 45.96109,-13.02156 -5.54108,-13.39913 27.08115,15.97014 9.30191,-1.63044 -8.90515,-2.74318 -17.87761,-6.07589 -27.468,-4.357 M 310,235.2 c -0.55799,2.67793 1.71341,-2.60194 -0.009,0 m -1.23,2.06 c -2.73755,10.72905 6.42521,0.85941 1.397,-0.6825 l -1.417,0.6795 m -180.36,0.487 c 0.80571,0.9267 4.86751,-0.45265 -0.01,0 m 63.2,3.21 c 0.97143,9.94273 8.65679,-3.40983 -0.008,0.007 M 304.66,244 c -1.63189,4.24268 3.0477,-4.31733 0,0 z m 1.33,1.8 c 0.9198,4.86307 0.9198,-4.86307 0,0 z m -94.9,2.08 c 5.77178,0.56571 1.14416,-0.56967 0,-0.001 m 94.1,0.59 c 1.2639,1.68704 0.61328,-2.1961 -0.004,-0.003 m -156.84,0.419 c -25.79389,-2.31475 -53.976516,8.51171 -66.03,32.594 -10.710512,21.85996 -8.897666,49.50864 1.785,70.65 -0.478895,-6.14339 -5.304629,-28.49242 -1.29,-39.751 6.227268,-28.59409 32.22081,-49.90775 59.64,-55.924 -12.17048,-7.4128 9.12185,-6.64293 16.048,-2.637 -3.21811,-1.84514 -6.3997,-4.8968 -10.234,-4.882 m 196.04,4.53 c -3.76387,5.24867 -3.93058,0.31926 -0.02,-0.002 m 20.18,8.14 c -3.84071,2.88132 -1.10188,-0.0426 -0.02,-0.007 M 150.6,265.97 C 118.41383,277.75775 96.349546,314.2342 105.01963,348.22304 109.2045,368.60949 118.93033,390.10376 137,401.57 109.59432,376.19299 105.75979,332.26647 124.57615,300.76268 129.17365,286.58146 151.70851,270.50821 155.944,264.24 l -2.33375,0.66141 -3.04625,1.09959 m 14.8,5.1 c -12.14496,4.04032 -30.37307,18.10777 -32.19,26.526 -10.72278,28.51615 -6.09189,61.22466 7.779,87.911 3.24314,6.15847 9.35059,12.78768 12.04863,17.79 15.83827,13.31002 36.40142,23.62721 57.53537,23.114 -45.47383,-19.56014 -70.74758,-73.74544 -58.409,-121.35 1.46867,-11.69442 10.91103,-26.26683 13.175,-34.116 m 13.1,2.19 c -5.57348,18.30618 1.08252,38.17949 6.35326,55.99726 11.79215,33.56684 37.74201,61.88212 71.37674,74.30274 5.5999,1.79686 9.42397,8.14825 20.518,10.479 5.55266,4.27579 11.16947,2.44654 10.4945,6.15375 6.83681,0.26295 8.46297,4.99785 20.2515,0.69025 15.15728,-3.95721 29.43097,-11.1948 41.36,-21.405 -37.15663,12.4264 -79.09279,-1.62067 -105.02,-30.0335 -15.06639,-14.83564 -25.88333,-32.05382 -36.931,-49.3565 -10.00892,-15.28828 -22.83712,-28.86861 -28.445,-46.759 m 35.8,22.42 c 5.47879,8.82454 14.37445,18.02772 21.095,26.668 3.27912,4.1201 1.60139,6.38142 5.662,6.449 0.95386,2.3421 5.26643,3.3846 7.364,6.881 4.06146,2.83361 8.34249,6.52146 12.755,9.927 35.42855,24.32358 83.38216,32.30045 122.89756,12.92076 20.10432,-9.75647 39.21309,-24.34969 50.33444,-43.90076 -23.93037,30.9463 -66.33117,47.03055 -104.33,35.58 -16.7223,-4.75717 -33.1892,-13.48415 -46.333,-23.07 -6.30058,-3.4461 -6.77244,-7.07117 -10.208,-5.719 5.40887,3.42333 10.05589,6.72749 11.903,10.812 -8.21273,2.34972 -39.51193,-5.42018 -22.878,1.356 -7.15597,1.93517 -19.76339,-1.26708 -24.83574,-10.14822 C 229.66695,316.14462 216.372,296.69734 214.119,295.464 m 121.89,-0.5 c -3.69083,1.07371 2.03601,-1.36743 -0.01,0 m -8.2,0.8 c -3.5226,1.34905 4.64578,-0.89423 -0.01,0 m -2.27,0.71 c 1.46535,2.45994 5.80331,-0.49847 0,-0.013 m -6.83,0.75 c 3.0969,0.62018 0.59675,-0.63972 0,-0.003 m -29.17,1.62 c 18.39918,0.19559 8.50791,-0.37548 0.01,0 m 42.67,0.301 c 0.99173,2.10759 0.99173,-2.10759 0,0 z m -80.57,1.52 c 4.26696,3.55554 1.49037,-0.15403 0.002,-10e-4 m 5.06,4.03 c 7.73761,8.12965 7.08049,5.80118 0.004,-0.011 m -36.65,0.587 c 2.30646,6.78087 5.17699,5.97936 -0.016,0 m 3.69,5.46 c 1.66228,7.63084 9.37796,12.57666 -0.005,0.015 m 40.47,0.689 c 4.07987,4.23994 2.78292,0.20918 0.009,10e-4 m 2.26,3.01 c 7.63868,6.05518 5.79173,1.06491 -0.02,0.01 m 4.54,4.57 c 2.56057,1.66485 3.54708,-1.25676 0,0 z m -41.99,1.81 c 2.38732,5.63082 2.00506,0.89337 -0.009,0.003 m 36.41,13 c 7.28382,0.4848 20.58068,-0.90985 15.57,1.1 7.22993,2.02843 -21.38318,-0.0749 -15.607,-1.107 m 9.98,1.1 c 2.20613,1.46397 1.44791,-1.50327 -0.01,0 m -5.77,77.63 c 1.99663,0.55238 2.14144,0.3724 -0.009,-0.006 m 8.17,3.53 c 3.24193,2.62767 4.61699,-0.41808 0,-0.009"
       id="path59" />
    <path
       fill="#e16b1b"
       d="m 323.02,73.15 c 5.25393,2.116091 1.43984,-0.360777 -0.004,0 M 287.83,84.4 c 2.22695,4.119497 -1.20711,-3.547054 0,0 z m 0.8,2.34 c -1.4145,6.436699 -11.49012,10.846499 -17.017,15.53 -10.4643,10.01483 -19.73203,2.24207 -10.127,18.133 -4.16066,5.3337 -22.61243,8.97961 -30.93963,15.476 -4.75342,-10.4992 8.21125,-34.53582 -0.23375,-36.63125 -9.77283,4.64461 -15.3874,9.37509 -14.36153,-4.599875 C 192.8322,79.529859 212.51673,113.4767 200.597,121.658 c -2.64562,6.34995 2.44845,1.71706 2.34975,3.965 8.23513,0.54133 -5.37009,-5.58193 7.67725,-2.708 3.83088,4.31311 9.35211,4.0135 16.148,6.278 4.30898,-2.8643 -0.89494,17.86134 8.127,8.798 -0.37565,-4.76808 4.22916,1.97347 9.105,-1.01 -3.27797,10.99262 5.92858,1.58171 10.667,3.585 0.40494,-0.85471 12.13866,3.29448 18.268,6.189 4.9214,3.8882 23.56616,1.67758 10.318,5.092 6.77645,2.0821 14.63393,2.19106 2.69,-0.21313 15.53093,-2.29418 28.3649,2.38609 39.695,13.10513 -2.26977,-12.09366 -20.61624,-25.17673 -35.19161,-28.29117 -16.79736,-7.27167 24.97002,-6.15506 29.82961,4.64117 7.11844,2.60996 -9.94123,-15.18861 -18.04625,-14.68875 -7.25998,-6.05275 -39.29433,6.28705 -20.98875,-6.92287 14.54229,-5.11173 13.49932,-21.349751 7.134,-33.01938 M 256.5,88.4 c 0.33877,3.148331 0.29747,-3.16034 0,0 z m -64.7,0.8 c 4.07784,1.758639 -1.09104,-1.644378 0,-0.008 m 8,1.2 c 4.29047,1.058594 1.88657,-0.488597 -0.8,-0.346 z m 56.23,4.43 c 0.79906,23.26278 0.28914,-15.537511 -0.009,0 M 339.6,92.2 c 5.25181,5.02988 -4.3129,-4.967534 0,0 z m 21,0.565 c 3.77082,4.035413 3.89338,2.159353 0,0 z m 8.34,8.13 c 3.59131,4.35899 3.84089,3.17646 0.01,0 m -39.88,2.36 c 2.3588,7.65356 11.78667,14.89572 17.514,25.916 3.33836,-6.3378 -6.23994,-18.69322 -14.78,-24.27 0.54839,0.15461 -4.61993,-3.34841 -2.742,-1.617 m 63.74,13.68 c 0.48799,2.5765 1.46674,-1.45786 0,-0.01 m 3.62,2.43 c 25.74895,40.62158 15.34303,98.35476 -19.24272,130.80506 -9.68556,7.2941 -15.30683,15.44695 -20.92828,26.11494 -6.6418,10.8649 6.36121,2.52761 13.39025,-0.0266 11.92711,-6.35118 24.22328,-14.73274 30.96,-25.75888 3.8557,-4.24058 4.44211,-8.87527 7.60075,-16.2735 2.69452,-8.78756 4.49041,-12.78029 7.91,-23.116 2.40216,-13.50465 4.67146,-13.19279 3.87263,-24.2305 5.06536,-11.32636 4.48058,-23.58373 -1.31563,-35.0545 -5.00941,-12.1728 -12.24576,-23.74872 -22.37,-32.32 m -13,5.11 c 1.7767,4.44849 -0.47227,-3.34141 0,-0.001 m 12.64,1.12 c 1.78784,3.88063 -1.16915,-4.20348 0,0 z m -130.9,1.18 c 3.061,6.9945 -16.07281,9.03136 -20.23375,15.38625 -1.43768,-8.80978 13.35776,-20.04117 20.24375,-15.38525 m -53.96,0.4 c 3.11065,1.44954 2.65971,-1.03408 0,0 z m 136.2,4.6 c 5.27981,13.90991 4.35243,8.05686 -10e-4,0 m 38.85,1.4 c 1.33445,6.61883 0.22705,-3.55878 -0.006,0 m -192.95,-0.3 c -2.72258,4.32188 2.47146,-1.41965 -0.009,-0.008 m 45.08,0.9 c -4.10452,3.746 2.51501,-3.41005 0,0 z m -6.16,3.34 c -2.4555,1.16061 0.10401,-2.27516 -0.004,-0.009 m 126.66,0.052 c 0.32182,2.50336 0.32182,-2.50336 0,0 z m 0.464,6.8 c 0.25844,9.08259 0.25798,-9.06119 0,0 z m 28.52,-2.8 c 1.23643,9.76416 0.22616,-5.88571 0,0 z m -138.03,1 c 2.45829,2.09221 0.0614,-2.02889 -0.008,-0.007 m 101.47,0.05 c 1.47652,5.83831 1.86817,3.30057 0,-0.01 M 247,142.8 c 1.56127,1.46125 1.56127,-1.46125 0,0 z m 6.02,0.187 c 3.98404,1.81695 -1.23756,-2.16015 -0.003,-0.007 m -63.82,-0.151 c -0.75863,1.80057 -0.38341,5.42944 0,-0.01 m 66,0.103 c 5.97449,4.09707 2.86429,-0.69903 -0.01,-0.001 m 83.84,0.861 c 1.28814,4.34023 -0.30533,-3.21168 0,0 z m 61.04,3.4 c 0.32182,2.50336 0.32182,-2.50336 0,0 z m -47.27,0 c 1.50814,7.15416 1.74991,4.96434 -0.002,0 m 35.97,7.08 c 0.2077,17.1367 0.43735,-16.71685 0.022,-0.67634 z m -201.15,-4.61 c -1.24104,4.71562 0.82359,-1.14781 0,0 z m 171.28,2.53 c 0.31694,4.72182 0.24982,-5.22981 0,-0.01 m -4.77,0.8 c 1.85621,17.47508 2.70958,2.6257 -0.002,0 m -60.13,1.58 c 2.53822,2.35748 8.02778,0.20408 0.004,-0.007 m 46.53,4.21 c 0.25627,8.59519 0.26367,-8.50986 0,0 z m 59.54,-3 c 0.38243,2.59562 0.24691,-3.10374 0,-0.01 M 299.2,156 c 3.48248,3.21158 1.25739,-2.08396 -0.007,-0.008 m 2.98,1.17 c 2.66978,1.96507 2.69896,-0.0485 0,0 z m 2.65,1.91 c -0.36061,1.55259 3.86016,-0.39679 -0.003,-0.001 m -22.24,0.168 c -7.66672,-0.43677 -36.59384,12.88864 -15.5775,6.52112 -14.1327,1.61309 17.1291,-7.86851 22.14,-6.15774 17.31684,1.44587 0.56245,-1.78716 -6.5625,-0.37338 m 23.96,1.04 c -5.21614,0.80426 -2.99549,1.27763 2.916,5.205 -0.0516,-3.49946 10.0511,7.37497 5.193,2.967 -9.51157,-8.24855 13.1753,16.68314 4.176,2.866 -2.97358,-4.03899 -7.53727,-11.08428 -12.294,-11.097 m 51.08,0.17 c -1.24104,4.71562 0.82359,-1.14781 0,0 z m -58.44,0.252 c 8.1054,2.5749 -0.61338,-1.45603 0,-0.011 m 81.9,0.79 c -4.20075,6.10947 -3.1567,25.08366 -8.83708,35.53347 -3.31443,9.40594 -16.46203,32.90919 -2.39339,13.44067 9.47993,-13.88534 19.03319,-30.58588 17.87647,-47.71314 0.48069,-2.02491 -1.58655,0.96666 -6.645,-1.273 m -25.43,3.88 c 1.14976,4.90595 1.58384,-5.38862 0,0 z m 43.33,-0.2 c -0.62958,6.33844 1.40112,-5.45757 -0.003,0 m -128.5,0.29 c 8.44097,0.53113 1.68189,-0.53278 0,0 z m 6.37,0.313 c 7.39973,1.41054 17.71975,3.30732 4.71,0.219 l -3.53375,-0.40075 -1.18625,0.18575 m 12.72,2.95 c -20.57914,4.30729 6.85242,2.02319 0.01,-0.008 M 187.47,171.2 c 0.77225,6.50816 0.17831,-4.1801 0,0 z m 102.72,0.317 c 4.09982,1.83543 3.23118,-0.53686 0,-0.003 m 7,2.37 c 8.48739,4.99719 15.53393,11.41123 3.538,1.41825 0.17984,-0.52018 -9.74165,-4.75097 -3.54,-1.43125 m 125,6.02 c -1.8259,2.70165 2.03661,0.82045 0,-0.003 m -133.31,1.22 c 9.02123,3.52857 -4.13243,-2.09001 8.30141,0.79573 6.35827,0.75521 19.23697,10.4146 13.48959,3.74427 0.403,3.41311 -16.98378,-8.98719 -21.78,-4.558 m 133.17,1.78 c -2.22369,5.90093 1.7229,-0.0966 -0.01,-0.004 m -127.48,0.233 c 6.75984,4.74232 -0.29581,-2.59554 0,0 z m 3.24,1.59 c 11.2755,7.6259 8.41158,3.7307 0,-0.01 m -25.92,1.13 c 6.26947,0.5852 1.18637,-0.58594 0.01,-0.003 m 8.6,0.387 c 3.0969,0.62018 0.59675,-0.63972 0,-0.003 m 2.33,0.27 c 1.29994,1.00008 8.70065,-0.28087 0,0 z M 271.6,187.8 c 4.46449,2.23841 -2.51252,-2.1376 0,-0.004 m 148.8,-0.267 c 0.89939,5.64981 2.05727,0.34724 -0.008,-0.002 m -128.61,0.683 c 7.11015,1.70615 -5.39532,-1.92734 -0.01,0 M 296,189.4 c 5.69473,2.09754 -3.3378,-2.06894 0,-0.002 m 10.4,0.666 c 0.49349,4.05217 13.50044,12.26141 -0.016,-0.011 m -6.8,0.418 c 3.0167,1.66479 2.75204,0.0504 0,0 z m 4,1.68 c 4.58611,1.87899 -3.2401,-2.00606 -0.0761,-0.0463 z m -21.2,0.81 c 3.23729,2.41871 3.15067,0.87113 0,-0.002 m 23.2,0.04 c 3.25169,2.32923 3.13795,0.48369 0,-0.014 m 137.59,3.17 c 3.04587,49.66095 -27.23645,100.3236 -74.968,116.83 -9.88516,3.81658 -18.18543,4.90449 -21.914,8.466 -12.25455,3.86184 -25.25693,7.73354 -37.313,10.282 12.71061,5.15409 30.34096,6.97868 45.25588,6.04237 9.19155,-1.26173 20.1,-3.94324 25.54312,-6.73737 6.36054,-2.50339 15.61803,-8.07932 21.47,-14.506 -9.26328,5.55203 8.0242,-11.8913 11.682,-14.981 5.28422,-6.10705 12.26193,-11.34616 15.004,-19.128 3.06332,-3.67179 8.94592,-10.01551 7.282,-12.72 2.86135,-0.65057 2.62776,-10.31894 1.856,-5.187 3.36075,-5.60541 2.83329,-6.20626 5.456,-11.679 6.05492,-10.93973 6.75384,-23.43048 4.90925,-36.98075 C 446.70171,209.1535 445.43247,202.27528 442.92,196.14 m -24.86,4.26 c -1.44877,2.18623 0.30542,-5.6097 -0.011,-0.009 m 22.56,0.334 c 0.32182,2.50336 0.32182,-2.50336 0,0 z m -227.19,2.6 c 0.38243,2.59562 0.24691,-3.10374 0,-0.01 m 226.76,1.25 c -1.20841,3.78743 0.63709,3.57668 0,-0.004 M 213.72,207.6 c 0.30757,3.74062 0.30757,-3.74062 0,0 z m -17.98,3 c 0.29221,5.40821 0.24195,-5.96399 -0.006,-0.01 m 85.36,-1.1 h 5.8 l -2.9,-0.138 -2.9,0.13 m -6.59,0.39 c 4.38688,0.56975 0.92456,-0.58894 0.005,-0.003 m 16.19,-0.005 c 3.98966,0.59771 0.78212,-0.60748 0,-0.003 m 5.37,0.498 c 5.89535,1.65904 4.08667,-0.49787 0,-0.001 M 267,210.8 c -0.16004,1.37476 4.27104,-1.48865 0,-0.002 m 39.94,0.647 c -0.20274,2.83676 4.46281,3.19848 -0.004,-0.005 m -42.14,0.241 c -6.22948,1.36777 7.65052,-0.42813 0,-0.007 m 38.8,0.25 c 3.2577,1.76191 2.3184,-0.48755 0,-0.004 m 135.44,1.07 c -1.22321,4.73868 1.46955,-2.13818 0,-0.008 M 358.17,224.5 c -4.77644,4.70461 5.13411,-4.45456 0.01,0 M 95.4,224.36 c -6.421089,2.47821 -10.125282,2.73753 -8.7735,7.57025 -3.262092,4.52951 -6.602521,10.17286 -12.835,16.189 -4.880619,7.09195 -12.779627,19.41387 -12.9645,24.71775 7.502293,-21.21006 23.41136,-40.4653 46.80803,-43.0922 11.30979,-1.3037 24.25699,0.96525 32.22303,8.07511 C 130.39798,226.67392 110.42152,222.75545 95.353,224.26 m 264.19,7.14 c -11.1984,11.42768 11.69802,-11.44511 0,0.01 m -251.48,6.38 c 4.38688,0.56975 0.92456,-0.58894 0.005,-0.003 M 97,240.28 c -3.780832,1.70148 3.60705,-0.6629 -0.008,-0.017 m 96,-0.088 c 2.47857,6.6051 11.52687,3.79402 -0.002,0.003 m -77.43,2.36 c -9.446,0.95787 -18.390035,5.25411 -16.633375,14.1485 0.08788,-9.5267 -5.326908,3.74545 -4.798625,5.9705 -1.540644,4.0524 -2.943043,5.28031 -6.50575,8.743 -6.240763,9.29899 -11.431834,21.20207 -13.89325,32.479 -1.306683,6.72082 -4.489609,12.13182 -3.708,21.07 -1.044272,3.88332 5.493191,18.86036 11.936,26.04 9.677092,10.36369 -4.661489,-8.87101 -4.754141,-18.10035 -5.59996,-24.68767 -0.618941,-53.43436 19.991643,-69.99788 13.708038,-12.90519 34.104408,-13.75194 51.777248,-14.98964 -10.10624,-5.55387 -22.131,-6.18928 -33.44675,-5.59013 m 77.03,1.04 c 2.26498,1.40917 2.1244,-0.52977 -0.002,-0.004 m 210.07,4.69 c -1.52392,4.33776 2.26504,-2.02153 -0.01,-0.002 m -252.5,0.706 c 3.62703,2.30771 -1.59966,-2.26186 0,-0.004 M 96.4,251.77 c 0.731203,2.6096 1.531003,-2.11196 -0.007,-0.006 M 75.77,252.9 c -4.776439,4.70461 5.13411,-4.45456 0.01,0 m 339.81,2.6 c -8.9473,9.06849 9.58121,-9.09995 0,0 z m -51.7,6.36 c -4.5656,2.25061 2.73958,-0.70235 0.006,-0.011 M 67.8,263.2 c -1.696104,4.23778 2.606986,-4.28099 -0.002,0 m 79.6,0.68 c -14.19177,0.73688 -29.54128,6.75814 -39.009,16.431 -3.89445,3.83512 -0.10971,2.402 -0.241,5.854 5.04523,8.06552 -6.50844,4.96904 -1.323,12.092 -5.65016,3.91448 2.625,15.25077 -3.61,16.809 -2.83454,7.96818 -6.052611,22.62815 -6.419,34.121 -0.648066,9.06665 -0.153914,10.15005 5.692,20.929 7.46009,12.11316 18.11336,22.54551 30.44438,29.199 -25.24069,-23.21833 -37.104055,-62.29585 -24.32638,-94.871 10.54659,-19.24308 27.86955,-36.98758 50.27,-40.813 -3.83723,-0.42292 -7.6974,-0.17007 -11.54,-0.026 m -83.82,7.57 c -1.097353,4.21185 1.844342,-3.75239 0,0.005 m 114.77,1.64 c -0.69746,1.17257 3.1836,-0.66455 -0.002,-0.009 M 62.08,275.48 c -1.310792,5.46567 2.024133,-4.79258 0,0 z m 114.85,-0.18 c -1.71003,15.05927 -0.8319,10.87714 -2.17,8.6 0.19926,10.99232 -1.12252,22.58136 1.8435,33.00275 -1.63352,2.62141 2.11449,12.36096 3.5835,17.32025 -2.95021,0.33611 2.29623,8.71753 2.565,14.405 1.84305,6.75803 8.15508,15.93339 9.216,22.487 5.13918,4.66206 2.11406,3.82994 3.163,6.627 1.86439,5.10697 1.07259,2.06559 4.514,8.98 0.12507,-3.96629 6.55703,11.8341 14.348,16.121 8.05689,7.18212 8.7261,11.24662 14.27613,13.18688 5.11857,1.6607 25.52446,8.88576 36.66735,8.17651 10.80296,0.64846 33.83223,0.98784 27.99127,-3.70239 -8.03874,-0.95722 -4.47122,-2.71315 -10.63563,-4.0125 -3.76183,-2.85233 -17.64057,-5.56029 -21.52112,-10.8645 -7.12366,-3.7802 -30.27112,-13.30755 -40.20439,-23.28039 -21.31756,-19.20854 -36.41752,-45.72878 -41.61511,-73.76436 -1.51906,1.44639 -1.69169,-16.6628 -1.71288,-4.63737 -1.54168,-8.49878 -0.48105,-24.92625 -0.44062,-28.95888 m -117.73,0.477 c -1.445377,6.39992 2.153723,-4.63228 -0.008,-0.003 m 83.36,1.12 c -4.54983,4.91213 4.79983,-4.77601 0,0.01 M 102,278.2 c -5.762583,6.38198 6.70327,-6.44265 0,0 z m -40.92,0.1 c -2.594315,7.4874 1.854184,-2.16384 0,0 z m -3.04,1.91 c -1.131302,16.0482 0.403392,11.67753 0.615625,-1.62825 L 58.04,280.214 m 1.23,4.96 c -1.375997,9.35298 2.044898,-7.739 0,0 z m 83.37,-0.521 c -6.54658,6.64743 7.03343,-5.9124 0.001,0.007 m 207.75,-1.48 c -1.93327,2.03733 1.17683,-0.86004 -0.004,-0.007 m -3.6,1.22 c -3.24047,2.1998 1.79001,-0.62606 -0.006,-0.017 m -62.79,0.784 c 6.95219,2.15509 16.50153,2.1959 0,-0.009 m 54.69,1.2 c -6.28722,1.62314 6.55333,-1.0162 0,-0.007 m -200.85,3.13 c -4.88828,5.37796 0.96592,-0.51992 2.48,-2.53 z m 161.96,-1.52 c 6.44264,1.02999 5.46893,-0.43514 0,0 z m 27.4,0 c -7.36775,0.97269 11.12624,-0.8386 0,0 z m -219.32,0.53 c 0.0713,3.62989 1.2332,-1.85389 -10e-4,0 m 199.02,0.14 c 3.0969,0.62018 0.59675,-0.63972 0,-0.003 m -130.68,8.04 c -3.08183,-1.82611 2.38974,-7.45639 -0.007,-0.013 m -43.76,-0.66 c -10.24039,14.65165 -15.48581,34.36686 -11.73803,53.00754 3.5093,22.41768 16.64245,43.17607 34.87203,56.55246 -3.84156,-3.89386 -6.9099,-8.92824 -10.746,-14.046 -15.64978,-24.22258 -21.16743,-54.91095 -14.995,-83.172 -0.34946,-5.32346 6.55234,-15.28624 2.605,-12.319 m 140.05,1.81 c 3.0969,0.62018 0.59675,-0.63972 0,-0.003 m 41.6,0 c 3.0969,0.62018 0.59675,-0.63972 0,-0.003 m -97.76,1.45 c 2.23347,4.27294 -1.21868,-3.72306 -0.003,-0.003 m 1.26,1.87 c 0.44172,2.14947 4.5659,5.26365 3.63538,6.80237 1.59384,2.43313 7.38167,7.72874 5.91662,10.19363 1.76772,1.9394 4.09746,5.40024 2.88175,4.91662 9.08616,13.90708 16.45985,30.98231 31.03525,41.71438 43.38889,33.452 109.85815,27.38619 148.21594,-11.05784 12.72688,-10.72792 26.36159,-34.23367 28.24506,-44.76516 -7.10356,14.26101 -19.83774,28.70541 -34.58,38.55594 -38.17449,28.20387 -92.30691,28.41052 -132.27,3.70406 -7.67402,-4.24263 -14.71505,-9.28827 -19.445,-13.743 -3.87845,-2.51024 -6.34596,-5.74097 -9.22,-7.48 -2.45292,-3.51003 -4.8858,0.12534 -4.978,-6.018 -4.69355,-4.03064 -12.84307,-16.2145 -19.17609,-23.18166 L 217.43,300.976 m 48,2.12 c 2.57212,2.82788 3.88402,3.23092 0.01,0 m -115.13,10.54 c -0.8395,7.03415 0.6849,-4.60059 0,0 z m 253.13,-0.781 c -4.76257,3.34129 1.88923,0.39054 0.004,10e-4 M 176.79,314.7 c -0.29069,2.82904 -1.5968,-1.32769 -0.004,0 M 82.09,316 c 0.321817,2.50336 0.321817,-2.50336 0,0 z m 67.27,15 c 0.22991,12.40512 0.25655,-11.77468 0,0 z m 143.83,-6.42 c 3.23729,2.41871 3.15067,0.87113 0,-0.002 m -178.44,1.73 c 0.2221,3.32061 0.54355,-3.11428 -0.008,-0.01 m 187.43,2.86 c 2.66978,1.96507 2.69896,-0.0485 0,0 z m 117.18,0.923 c -4.54983,4.91213 4.79983,-4.77601 0,0.01 m -113.57,0.62 c 2.95657,1.83919 2.46262,-0.52346 0,-0.014 M 113.69,332 c 0.32182,2.50336 0.32182,-2.50336 0,0 z m -31.95,5.8 c 1.151924,10.75436 1.188052,0.78037 0,-0.01 m 68.66,8.83 c 0.77787,7.1683 0.34558,-5.13719 -0.001,-10e-4 m -67.01,0.167 c 1.633435,5.92855 -0.224335,-4.2834 0,-0.007 m 11.43,6.9 c 1.286472,5.53852 1.386934,-2.75381 -0.005,0.002 m 250.67,-0.218 c 3.98966,0.59771 0.78212,-0.60748 0,-0.003 m 20.4,0.001 c 3.5064,0.57911 0.72702,-0.61436 0,-0.002 M 113.47,355.8 c 0.75553,8.44284 0.1618,-5.15254 0,0 z m 38.36,-1.2 c 1.28814,4.34023 -0.30533,-3.21168 0,0 z m 210.25,-0.724 c 3.0969,0.62018 0.59675,-0.63972 0,-0.003 M 114.64,362.2 c 1.28814,4.34023 -0.30533,-3.21168 0,0 z m 122.95,0.725 c 2.57212,2.82788 3.88402,3.23092 0.01,0 m 7,7.47 c 8.88691,8.57692 -7.94651,-8.51429 0,0 z m -52.09,4.77 c 1.09535,2.09799 0.55002,-2.55057 0,0 z m -57.37,24.48 c 1.33945,4.57009 1.30891,-0.36181 0,-0.004 m 173.16,3.82 c 3.98966,0.59771 0.78212,-0.60748 0,-0.003 m 21.2,0 c 3.98966,0.59771 0.78212,-0.60748 0,-0.003 m -113.1,4.26 c 1.10157,2.14519 1.75729,-0.58837 0,-0.01 m -53.6,3.45 c 5.58994,4.15458 -2.25376,-2.52174 -0.01,0.001 m 108.7,1.89 c 0.12787,0.642 -3.13121,-1.41069 -0.007,0 m 8.48,3.47 c 3.65942,2.62575 -5.43919,-1.59183 -0.009,0 m 40.92,-0.164 c -3.42432,1.86555 5.01546,-1.40862 0,-0.009 m -7.9,3 c -3.11099,1.74202 5.22697,-2.18563 0,-0.008 m -4.2,1.21 c 6.52092,-0.96867 2.10713,-0.52168 0,-0.003 m -5.8,1.26 c -5.46349,1.87675 5.7944,-0.83652 0,0 z"
       id="path61" />
    <path
       fill="#bd381a"
       d="m 261.8,59.25 c -20.38184,4.854798 -19.35094,41.87219 -39.58673,36.397982 -13.44519,-10.650422 -31.54322,-2.039785 -44.25973,-13.454757 -7.98927,-8.071633 -18.73242,-10.955903 -12.7642,4.60349 0.34355,19.921305 20.08977,35.680235 25.13654,49.834075 -10.4461,22.40468 0.24715,45.83299 4.30976,68.07964 2.7254,17.20336 -15.24582,45.02107 13.59775,43.67125 21.23829,3.98038 30.94577,-17.83897 46.04204,-27.66201 16.38127,-14.41416 43.89786,-8.54561 55.74657,8.75533 -3.89765,14.49387 -16.03324,26.05585 -17.93888,41.0185 18.81386,0.32344 34.19653,-20.66632 50.45065,-30.32574 31.19942,-24.42557 56.04815,-64.90684 45.13812,-105.62983 -8.60067,-37.703786 -45.77923,-63.500798 -83.20364,-65.614621 -12.3983,0.386769 15.04175,6.554469 19.75716,11.864117 21.56218,13.473352 34.18409,38.589964 33.92084,63.826074 -5.97191,-27.25197 -29.17418,-49.749501 -56.499,-55.171875 11.44997,11.735565 28.82948,22.699665 32.74881,41.680035 4.36794,8.83807 6.20179,37.8698 3.49908,35.25449 -4.97433,-26.15798 -20.40717,-50.88523 -43.66639,-64.4439 C 291.15858,84.806007 280.30662,61.88396 261.54,59.256 m 15.14,9.34 c 17.47545,12.896099 17.2671,42.59584 15.23138,55.80342 11.16368,-1.68253 31.17314,12.1252 28.77147,17.11079 -5.71135,-7.80827 -36.28266,-13.90411 -31.09262,-5.12338 15.07592,0.94414 36.17125,20.3483 35.44729,27.80185 -5.52223,-7.81957 -30.9931,-14.28687 -30.76425,-10.93111 10.30497,-0.87941 29.11537,21.91319 23.12928,19.46829 -5.67332,-8.76211 -30.68145,-18.78693 -16.42997,-0.69739 7.84873,9.59624 12.96973,16.84828 5.76182,17.34427 14.59881,16.75915 -18.38809,-7.62905 -27.60933,-3.10207 -16.14619,0.96344 15.53261,10.00886 19.32473,16.62948 17.82119,11.66526 -3.68239,17.29463 -15.213,9.05615 -26.40216,-7.30592 -39.79048,23.58714 -60.19384,33.5788 -8.58382,4.57644 -25.35674,2.71656 -17.93957,-7.35126 -9.26449,-2.08245 -17.3551,-4.28578 -10.40661,-14.82991 4.28821,-21.88733 -7.08187,-42.38633 -9.01072,-63.29172 8.08093,-17.61214 5.18014,-34.22512 -9.7474,-46.67973 -6.99323,-9.82542 -13.52159,-34.029529 -9.40141,-38.711438 14.16568,19.738795 42.77449,10.43705 60.16513,24.954896 14.01574,2.013872 18.6068,-43.251083 24.34139,-13.991966 2.44597,10.821751 -7.59364,43.986658 9.7661,35.385438 -7.25448,-17.41831 -6.59936,-35.646851 -0.50675,-53.663536 2.55369,-11.051545 12.56498,-6.310123 16.28685,1.007126 m 31.87,1.39 c 41.93092,4.332703 81.95124,39.94041 80.62482,84.0606 0.11963,44.48945 -34.31676,79.15216 -69.17978,101.98486 -7.3115,5.41232 -35.00012,25.75206 -23.61299,4.46255 14.91718,-35.70963 46.99399,-66.70058 43.60652,-108.11696 -1.65962,-25.31936 -16.14356,-50.18286 -38.98732,-61.940675 31.7247,5.773324 59.29263,36.147455 56.25525,69.274375 9.01524,-37.40916 -15.03539,-78.937191 -52.37366,-88.985211 -7.28705,-2.450237 4.63762,-0.64221 3.66116,-0.794539 m 82.56,45.64 c 12.90683,27.77523 9.18385,61.53568 -8.94012,86.16603 -24.59178,37.38202 -62.68992,63.57354 -102.66588,82.30997 20.98721,7.66098 44.56177,6.16781 66.14743,2.06119 47.58287,-10.89303 87.28358,-57.40833 80.99795,-107.50296 -2.61013,-24.3584 -14.05333,-48.91521 -34.189,-63.50839 l -1.33538,0.33516 m 5.2,3.74 c 37.15768,32.86269 39.71312,96.36959 5.26264,132.1186 -29.03817,34.10882 -79.04116,44.40929 -121.15964,32.7884 48.68238,-21.21645 94.66438,-56.8083 115.34578,-107.02847 6.527,-19.83251 4.75484,-41.89287 -3.23853,-61.03403 1.32569,0.95786 2.51688,2.08028 3.76575,3.1325 M 261.6,125.46 c -13.59551,3.5732 6.34122,0.81125 -0.03,0 m 3.42,2.98 c -4.19836,-0.23571 3.05454,2.18762 -0.001,-0.007 m 25.57,42.5 c 8.1073,3.68441 2.40742,-1.21325 0,-0.003 m -45.39,3.54 c -4.36265,13.82156 -38.92329,22.59377 -29.82952,32.72116 9.0607,-11.05873 34.76881,-19.04931 29.80752,-32.73116 m 55.42,-0.135 c 1.47884,3.62831 2.18756,-2.2036 0.004,0 M 439.6,194.92 c 2.14364,40.57926 -31.36155,73.34498 -67.04475,86.70952 -35.10742,15.21867 -74.51934,19.07509 -112.10481,13.34941 3.66573,15.47681 27.75982,27.25404 42.59329,35.46797 38.90592,17.36009 87.69418,7.57157 116.0098,-24.49185 28.39745,-30.45561 39.83847,-78.64437 22.08908,-117.11816 -2.63998,-0.73725 -1.6625,4.88081 -1.68261,5.85611 m 3.81,0.68 c 21.56615,60.28202 -22.2973,135.10597 -86.82773,142.11263 -37.24835,4.82942 -75.02108,-13.44574 -98.12014,-42.31697 53.28121,9.70277 111.98486,-1.99162 154.10312,-36.98316 18.69909,-17.20384 29.9953,-42.64975 28.66675,-68.1775 l 1.11159,2.69264 1.07541,2.70736 M 302,217.95 c -1.58872,2.05763 -2.26412,-2.07803 -0.01,-0.009 m 1.26,1.33 c -1.98363,0.78531 -1.08723,-1.3407 0,-10e-4 M 95.2,222.71 c -25.148068,3.39503 -39.979669,30.6925 -41.058872,54.02255 -1.433192,8.13742 6.437151,25.19672 6.799122,6.9622 4.810962,-29.9761 36.39944,-51.23012 65.89436,-44.53474 8.34787,1.82335 23.42729,5.05402 10.20902,-5.42222 C 125.67678,223.85475 109.67425,221.92676 95.177,222.721 m 12.8,1.29 c 10.41498,-1.10695 34.79678,10.11082 29.42757,16.21427 -30.32841,-10.56472 -69.346477,6.24136 -76.147594,39.21437 -4.245939,26.18996 -8.089183,-8.3749 -3.309332,-17.22108 C 63.24652,239.66045 83.536658,219.8424 107.97,224.02 m 88.6,16.52 c 12.28919,8.76494 -13.05811,1.05881 -2.91033,-0.24103 l 2.91433,0.24603 m -81.6,0.73 c -39.407833,4.84321 -61.381527,52.83913 -46.299388,87.83572 0.746897,10.3168 23.94115,41.1279 16.24393,17.13372 -1.408395,-7.78056 -4.069739,-16.82739 -1.796292,-3.09269 4.817565,9.2311 0.859886,15.38132 -4.342875,4.06613 -22.963474,-31.34387 -15.656745,-84.55011 22.169635,-100.78424 18.65252,-7.85667 41.5019,-5.19548 57.54099,7.27036 -38.57464,2.0341 -78.512567,33.0909 -76.944251,74.23558 0.506254,-28.92841 20.035301,-55.11038 46.548391,-65.94808 7.60224,-5.85523 43.10718,-4.92805 20.47624,-15.72232 -10.45608,-4.85251 -22.23324,-6.29517 -33.63938,-5.11518 m 73,17.33 c 25.86482,31.27311 39.36651,70.99043 66.0158,101.55233 43.36921,40.92948 118.13701,35.0767 158.1205,-7.76615 12.79152,-12.88009 22.74001,-28.75166 27.86058,-46.22156 -13.54476,11.72752 -22.65257,28.65234 -40.21929,35.54803 C 364.6254,360.58541 320.77713,352.53799 289.6305,329.51518 267.97187,314.5241 250.12737,294.27666 225.80819,283.21533 212.02073,277.4092 199.59262,264.24096 187.792,258.302 m 7.66,6.04 c 23.47353,19.26942 53.85448,28.81929 74.75301,51.47688 31.77575,28.56318 78.55707,48.40919 120.48945,30.97343 19.6464,-7.74301 36.62176,-21.99212 47.79757,-39.89484 -17.80489,60.80247 -91.73101,96.36509 -150.50261,72.88293 -24.72918,-8.6105 -44.106,-28.19116 -55.13344,-51.61741 -13.29351,-22.49768 -25.7806,-45.54531 -41.04748,-66.80387 1.34852,0.78359 2.42769,1.92267 3.6325,2.89588 M 143.6,262.8 c -33.75366,2.01972 -58.973785,35.90216 -55.240614,68.78836 2.028853,29.77963 20.931564,57.70611 47.604614,70.99664 3.4303,-7.36382 -19.97337,-21.0408 -18.55576,-34.63607 -11.97191,-38.77529 8.17341,-83.00596 42.43251,-103.32143 -1.28072,-5.5191 -12.21598,-1.04485 -16.36375,-1.9425 m 15.59,1.1 c -39.81409,24.12816 -60.588823,81.61963 -34.25351,122.57609 6.21439,6.65164 19.12792,22.4889 1.91159,9.68549 C 89.326317,372.24426 74.875395,312.65832 108.27717,279.5718 121.61196,266.8011 141.05934,262.3152 159.056,263.786 m 6.2,5.64 c -37.24184,12.66226 -57.43413,58.36595 -42.19987,94.5937 13.09997,35.9102 49.4542,62.57684 87.72979,63.5085 -3.88161,-7.76154 -31.01568,-17.29546 -38.09862,-32.10452 -28.16109,-34.93717 -30.26888,-88.33771 -4.29952,-125.02802 0.0956,-1.653 -2.35526,-1.45938 -3.19078,-1.04766 m 1.55,1.9 c -29.06896,42.63642 -20.80043,106.68489 19.39978,139.49625 3.74533,7.33159 38.38124,18.38553 14.30414,15.27146 -48.68407,-6.97518 -91.11629,-57.09319 -79.06474,-107.03204 6.26794,-21.49712 22.96778,-42.37756 45.54082,-47.52867 m 10.06,1.45 c -30.56491,34.84469 -23.32969,92.99375 12.27638,121.6634 42.18181,37.59965 112.06492,43.18947 157.28933,8.01137 6.14372,-10.17698 -20.11745,3.84896 -27.17727,0.17114 -40.12198,0.005 -74.20925,-27.13689 -95.43255,-59.29654 -12.55973,-17.95535 -24.04892,-36.82494 -37.46857,-54.05085 -3.35961,-4.7816 -2.53151,-15.4344 -9.50232,-16.54352 m 2.75,1.18 c 8.13037,25.30088 28.67018,43.79391 41.08534,66.8752 22.36049,33.53894 57.60568,64.2185 100.20279,62.89668 8.88019,0.66735 38.22478,-8.88468 18.97056,2.77557 -49.54818,32.41794 -122.9007,21.24935 -160.69269,-24.2009 -24.98063,-29.04958 -28.24053,-76.01475 -3.19472,-105.91589 l 1.77382,-1.43704 1.8089,-1.03662"
       id="path63" />
    <path
       fill="#d35418"
       d="m 164.95,72.96 c -0.66386,5.299741 1.25866,-1.424752 0,0.004 m 83.09,0.134 c -14.39622,17.325046 -18.84833,40.79677 -17.51663,62.865 4.15904,-4.03715 26.40788,-9.25563 21.4975,-14.36475 -2.25756,-2.59994 -1.09358,-18.43202 0.004,-26.831 C 251.07399,88.076805 251.54353,77.167168 248.045,73.109 m 8.59,10.71 c -1.04273,5.684582 1.256,-0.982826 0,-0.003 m -0.556,5.38 c 0.32182,2.503359 0.32182,-2.503359 0,0 z m -42.1,4.04 c 5.35406,5.807597 0.13026,17.16121 11.177,7.972 7.71327,-1.04942 -12.13048,-8.999279 -11.176,-7.973 m 77.86,2.35 c 0.85351,5.04059 0.34332,-3.26397 0,0 z m -35.75,5.8 c 0.38243,2.59562 0.24691,-3.103742 0,-0.01 m 0.305,3.43 c 0.87317,7.99778 0.32205,-5.827793 0,-0.007 m 36.67,1.02 c 0.85229,10.42616 -15.27041,13.80938 -17.7725,20.45825 7.62402,-2.66976 38.61391,0.6009 14.53216,-1.64761 2.42273,-3.23126 5.5297,-24.02645 3.25234,-18.82364 m -35.42,5.34 c -0.0176,3.04517 1.55296,0.76827 -0.008,0 m 83.12,2.1 c 6.33458,6.26859 -5.19942,-5.47031 -0.27229,-0.28399 z m -81.75,2.3 c 1.29421,5.24555 0.46585,-2.15722 -0.008,0 m 0.991,2.6 c 8.78805,7.66267 -14.71414,6.13302 2.377,4.9185 l -1.03,-2.7275 -1.35,-2.2 m 85.68,1.33 c 2.75949,4.57196 -0.21836,-3.05431 0.003,-0.01 m 1.69,2.85 c -3.51794,8.66588 6.78722,19.43729 7.321,31.58 1.80557,6.62961 1.40121,17.7928 2.68765,2.29896 1.29319,-11.64923 -3.72732,-26.53982 -10.03065,-33.90796 m -85.8,2.79 c 3.36578,2.56053 -12.07545,1.4776 -13.57837,7.86377 -10.90709,19.15545 12.638,-2.7488 18.82937,-4.27477 -1.87575,-0.85012 -2.62463,-5.05611 -5.261,-3.59 m -2.8,1.03 c -7.84469,3.68845 6.87908,-2.718 0,-0.006 m 43,0.116 c 5.8005,2.01074 1.6306,-0.61944 0,-0.002 m 3.43,1.01 c 6.76844,3.4907 1.63284,-0.30923 0,-0.001 M 266,129.04 c -2.49995,2.06899 -3.12006,-2.78209 -0.01,0 m 46.8,2.14 c 5.53613,3.92808 -1.98053,-2.11543 0,-0.003 m -24.7,0.82 c -3.42432,1.86555 5.01546,-1.40862 0,-0.009 m 10.5,-0.031 c 5.39183,1.29529 1.40748,-0.58002 0,-0.009 m 5.6,1.43 c 5.78927,2.16311 -3.202,-2.05613 0,-0.008 m -19.67,0.752 c -3.47141,3.79101 4.37513,-3.44891 0,-0.008 m 31.47,-0.841 c 2.57212,2.82788 3.88402,3.23092 0.01,0 m -8.4,1.2 c 0.56488,1.05421 5.23854,0.86345 0,-0.004 m -76.28,2.06 c -0.88594,1.96593 2.60147,-0.76125 0,-0.008 m 67.48,2.879 c 4.46449,2.23841 -2.51252,-2.1376 0,-0.004 m 101.3,10.4 c 0.38243,2.59562 0.24691,-3.10374 0,-0.01 m -10.75,4.4 c 0.28689,6.82903 0.23942,-7.38434 0,-0.01 M 289.1,151.51 c -9.28321,2.0017 22.91857,-0.0479 2.95969,-0.0462 L 289.1,151.507 m 111,1.493 c 0.38243,2.59562 0.24691,-3.10374 0,-0.01 m 18.91,-0.5 c 1.7767,4.44849 -0.47227,-3.34141 0,-0.001 M 304.4,153.13 c 3.2577,1.76191 2.3184,-0.48755 0,-0.004 m -12,0.17 c 0.92498,1.06116 6.94153,0.84255 0,-0.004 m 16.8,1.45 c 7.49203,3.22022 -1.12852,-1.42894 0,-0.004 m 111.41,2.23 c 1.68497,5.33382 -0.30754,-3.6599 0,-0.002 M 282.2,159.87 c -7.38683,0.83066 -29.96878,8.56605 -10.70359,5.42561 16.103,-1.77373 20.42617,7.32254 17.89359,5.15439 5.96751,-1.23588 23.48981,16.87732 12.024,1.821 -1.2877,-4.0228 -9.32604,-12.82173 -1.92025,-11.13862 -5.36865,-1.99859 -11.63562,-1.55613 -17.30875,-1.24538 m 140.07,2.32 c 1.93827,6.02596 -1.06576,-5.41757 0,0 z m -121.47,-0.667 c 2.85705,1.90575 1.8955,-0.57457 0,-0.012 m 12.78,2.96 c 6.31395,6.29087 -5.19025,-5.5276 -0.2973,-0.31568 z m -3.68,1.56 c 1.75771,2.6336 1.55627,-0.53988 0,-0.012 m 113.19,0.318 c 1.36455,5.87671 1.43861,-0.77538 -0.019,-0.003 M 312.03,167.7 c 3.77287,3.60633 2.7321,1.47846 -10e-4,0 m 4.35,4 c 6.5396,6.04605 -5.30848,-5.43153 -0.30705,-0.32592 z m 107.57,-0.824 c -1.87224,5.57303 -4.62028,25.99041 -4.19718,23.43275 -1.69311,9.69924 -4.98123,23.44986 -8.86182,31.37125 0.009,3.78331 -6.95294,15.94349 -5.394,17.66 -4.08178,6.43612 -9.86096,12.83516 -12.69975,17.18837 8.76457,-9.20207 9.38769,-11.00976 16.11184,-18.20539 14.98782,-20.34714 21.021,-47.60952 15.15494,-72.01576 L 423.91,170.703 M 246,171.9 c 0.29477,2.8276 1.59421,-1.32786 0,0 z m 74.22,2.5 c 1.29421,5.24555 0.46585,-2.15722 -0.008,0 m -18.28,-0.044 c 0.23665,2.24773 -2.73251,-1.39097 -0.004,-0.005 m 17.25,0.844 c 3.45731,4.3175 -2.54242,-4.25788 -0.004,0 m 1.63,2.3 c 2.14013,2.71185 -0.7975,-2.55027 -0.003,-0.007 m 101.81,3.51 c -2.04216,2.00539 0.40698,-3.36922 0,0 z M 308.44,182 c 4.73308,5.77583 -3.79049,-5.61885 -0.003,0 m -17.04,-0.38 c 8.13912,2.5015 16.88397,10.89332 14.733,5.294 8.00291,0.14919 -16.4522,-8.27411 -14.748,-5.288 m 131.15,1.5 c -0.93905,4.92369 -1.59577,0.14918 -0.004,0 M 269.2,186.34 c 5.03625,0.69079 7.0682,-1.08592 0,-0.018 m 6.69,-0.052 c 6.26947,0.5852 1.18637,-0.58594 0.01,-0.003 m 35.73,-0.089 c 0.7749,2.92747 1.7469,1.56737 -0.004,0 m -3.03,1 c 1.78649,2.54687 3.36233,0.24095 10e-4,-0.004 m -20.79,0.391 c 4.25806,1.48723 -0.13861,-1.37425 0,-0.002 m 133.63,1.01 c 0.81905,5.87123 -2.59388,-5.48103 -0.01,-0.015 m -111.61,4.6 c 9.80705,9.63028 -7.1998,-8.48837 -0.005,-0.003 m 0.581,2.87 c 5.48648,3.92076 3.81863,0.35691 0.01,-0.004 m 107.61,2.1 c -1.05187,2.4098 1.09335,4.3689 -0.013,-0.002 m -42.99,4.43 c -2.05254,4.04373 2.73859,-3.64781 -0.005,-0.003 M 301.6,205.8 c 5.25181,5.02988 -4.3129,-4.96753 0,0 z m 144.75,1.48 c 0.58828,3.13894 0.20243,-3.32645 0,-0.01 m -171.95,2.67 c 1.34664,-0.41128 23.99053,7.97006 28.164,6.435 3.71789,-9.67476 -19.86023,-5.58619 -28.21,-6.443 m -6.8,1.25 c 1.56127,1.46125 1.56127,-1.46125 0,0 z m 38.97,1.95 c 2.49953,2.01954 1.41641,-0.80086 0,0 z m 141.33,4.64 c 0.37933,9.21169 0.98263,2.17886 0.093,-2.4 l -0.095,2.4 m -83.72,-0.1 c -4.70961,4.72471 5.16551,-4.42077 0.048,0.028 m -63.79,0.476 c 3.1735,1.29905 -0.13133,-1.95465 -0.009,-0.006 m 1.79,1.11 c 3.34829,0.57872 -1.50686,-1.18744 -10e-4,-0.001 m -201.46,4.6 c 7.03992,0.53574 1.48566,-0.54194 0.01,0 m -8.11,0.518 c -24.311701,5.95588 -38.43076,33.63104 -36.65,57.37 1.417614,19.93264 2.624703,-17.1048 9.96925,-21.15125 4.491612,-8.97292 10.349405,-14.78116 16.43475,-22.38475 2.808753,-2.67321 3.974642,-9.7683 4.948,-9.63 -1.180943,-2.94835 13.28783,-4.76479 5.15,-4.189 m 18.63,0.133 c 0.93176,1.00833 6.92972,-0.29202 0,0 z m 337.01,10.12 c -2.40222,14.24123 0.81475,5.44032 -0.005,-0.01 m -250.3,7.82 c 4.87326,9.86719 0.46831,-6.09135 0,0.003 m -77.23,-0.201 c 9.32946,0.51405 1.86185,-0.51292 0,-0.007 m 325.31,1.07 c -1.4855,7.76961 -4.74659,14.39284 -7.19025,16.97025 -1.44262,5.62347 -0.71835,0.97163 -1.88275,7.04875 -1.83107,1.53635 -0.73429,6.73647 -5.208,10.486 -5.81322,6.95941 -7.97747,14.80763 -15.818,20.3 -6.20369,6.66948 -13.37895,13.44212 -18.906,20.61 13.15816,-5.46439 -18.63235,13.13197 -11.202,10.427 32.95765,-15.74641 57.45226,-49.08938 61.439,-85.473 l -0.42384,-1.55375 -0.81516,0.97375 m -341.83,1.79 c -32.109698,11.47884 -47.228703,53.23509 -33.792,83.22 -1.661326,-2.70408 0.897878,-15.14189 1.230375,-18.47238 4.562315,-10.77125 5.728671,-24.61416 13.985625,-34.67962 1.485041,-4.01984 6.70383,-7.40996 7.368375,-10.70825 2.032407,-3.00251 2.981325,-13.90345 5.615083,-9.6912 0.667242,1.21313 -0.103215,-10.1798 8.624542,-10.72855 l -3.21,1.13 m -6.86,6.83 c -1.557144,2.11213 -0.686391,-2.65522 -0.004,-0.004 m 290.37,12.64 c -5.58519,4.96908 6.5284,-4.92597 0.01,0 m -239.99,-0.762 c 3.0969,0.62018 0.59675,-0.63972 0,-0.003 m -9.1,0.93 c 1.58908,0.59754 6.27939,-1.29676 0,0 z m -9.6,2.6 c -2.92518,1.68625 4.35777,-1.80967 0,-0.016 m -4.1,1.39 c -3.42432,1.86555 5.01546,-1.40862 0,-0.009 m -9.23,5.02 c -6.57365,5.34669 7.56454,-4.63107 -0.01,-0.003 m -4.02,2.91 c -3.78657,4.49148 4.7459,-3.9313 -0.009,0 m 63.9,-0.05 c -25.08806,31.84625 -20.46174,80.51294 6.89038,109.4918 10.17992,11.40822 24.90106,21.3694 37.03962,26.3982 13.17258,5.86098 -5.94181,-8.57621 -8.71781,-12.82403 -7.00406,-4.3603 -10.33431,-16.69352 -10.94819,-12.78897 -3.43471,-6.90587 -2.67614,-3.8795 -4.54,-8.987 -1.21703,-3.78031 1.82984,0.14606 -2.01125,-6.48075 -1.82597,-3.46514 -7.65872,-14.26397 -9.01375,-19.64525 -1.69193,-5.03594 -6.44958,-16.5026 -3.985,-17.479 -1.57459,-5.0759 -5.17621,-14.93336 -3.63875,-17.46 -2.82509,-11.23009 -1.95985,-23.9471 -1.47125,-35.959 0.74557,15.38142 0.57512,2.33427 1.461,-5.2 l -1.06,1.1 m -66.66,2.58 c -2.19329,3.47284 3.10892,-1.73191 -0.015,-0.003 m -1.45,1.6 c -17.12675,17.6151 -22.890263,46.70783 -13.554,70.1 1.007252,4.35872 1.053961,2.66586 3.4675,5.62662 -1.233372,-12.34365 0.687617,-27.7217 5.37988,-37.75875 1.57386,-4.27647 3.91414,-8.97843 2.26252,-16.5278 1.20382,-5.79131 0.93291,-8.97562 2.6431,-10.90507 3.74093,-6.18275 -3.69338,-8.23744 -0.009,-9.94388 0.62677,-0.18113 -0.24246,-2.55089 -0.30838,-0.57512 m 189.47,6.98 c 3.0969,0.62018 0.59675,-0.63972 0,-0.003 m 34.8,0 c 3.0969,0.62018 0.59675,-0.63972 0,-0.003 M 108.39,289.1 c -0.64554,2.84869 -0.44576,-3.53962 -0.004,-0.006 m 67.68,4.36 c -1.72541,10.24622 1.7059,-5.31818 0,10e-4 m 0.335,5.6 c 1.40009,11.37253 1.00117,-3.20921 -0.007,0.003 m 1.85,9.47 c -0.41877,4.37509 1.19704,-2.86092 -0.004,-0.01 m 225.01,5.49 c -5.12318,3.37196 4.11984,-4.12095 0.01,0.006 m -227.27,1.25 c 0.31486,2.08314 1.16506,-2.92223 0,0 z m -55.55,7.76 c -1.02617,5.37263 0.81897,-2.16356 0,-10e-4 m -50.18,7.55 c 2.277402,6.13188 -1.525933,-6.3628 -0.004,0 m 311,-0.312 c -3.01155,2.48996 4.44116,-0.70044 0.001,-0.001 M 81.72,334.4 c 0.285499,4.62816 0.285499,-4.62816 0,0 z m 295.67,-2 c 1.39915,1.88547 2.36642,-2.273 0.004,0 m -3,0.8 c -2.97774,1.91915 2.78202,-0.25459 0.004,-0.012 m -255.05,4 c 0.28133,6.49381 0.27138,-6.50372 0,0 z m -6.02,-0.2 c 0.33202,4.01227 0.25034,-4.52032 0,-0.01 m 254.56,-1.9 c -5.03144,1.89943 7.00201,-1.16775 0,0 z m -4.98,1.28 c -6.93696,1.56956 7.25166,-0.95936 0,0 z m -29.4,1.5 c 3.5064,0.57911 0.72702,-0.61436 0,-0.002 M 350.6,338 c -9.13584,1.03834 12.60895,-0.81744 0,-0.006 m -14.1,0.27 c 3.0969,0.62018 0.59675,-0.63972 0,-0.003 m 75.69,13.02 c -10.62555,10.95864 10.5098,-10.35261 0,0.029 m -298.88,0.7 c 0.32824,3.11162 0.31231,-3.12467 0,0 z m 237.79,1.88 c 3.98966,0.59771 0.78212,-0.60748 0,-0.003 m 7.4,0 c 4.87981,0.57823 0.96564,-0.58227 0,-0.007 m -236.89,1.54 c 1.02418,4.36589 0.48346,-2.08278 0,-0.007 M 254,359 c 9.59883,9.2871 -8.65837,-9.22446 0,0 z M 96.33,357.56 c -1.628625,3.95156 3.393396,0.13005 -0.002,0 m 0.87,3.4 c 1.016661,2.55392 0.855188,-1.27601 0,-0.013 m 96,14.01 c -0.58076,2.51533 -1.09801,-2.10637 -0.007,-0.012 m 175,4.58 c -3.25142,1.7699 5.1614,-1.27963 0,-0.004 m -2.9,1.25 c -3.42432,1.86555 5.01546,-1.40862 0,-0.009 m -70.85,1.34 c 0.66139,1.17154 6.01553,0.6065 0,0 z m 66.15,0.244 c 0.80997,1.45093 2.84544,-1.89023 0.004,0 m -61.8,1.15 c 3.68154,1.6747 2.73016,-0.47515 0,0 z m 57.2,0.04 c -2.616,1.23146 4.51506,-1.11554 0,-0.004 m -49.8,1.53 c 12.49749,2.48502 -0.18116,-1.23619 0,-0.018 m 41.8,0.06 c -3.75066,1.10784 7.36981,-1.03989 0,-0.007 m -10.69,1.18 c -13.0885,1.61487 16.35053,-0.94122 0,-0.016 m -22.47,0.157 c 7.20798,1.11175 6.38815,-0.5263 0,0 z M 144,395.8 c 5.25181,5.02988 -4.3129,-4.96753 0,0 z m 73.6,12.44 c -0.67094,1.37225 -1.72525,-2.15611 0,-0.01 m 8.47,6.15 c -5.63383,0.73164 3.77159,1.77101 -0.003,0 m 2.02,1.07 c -0.4023,2.60776 2.63922,0.7629 0.008,-0.005 m 3.67,2.47 c 2.49953,2.01954 1.41641,-0.80086 0,0 z m 8.72,2.67 c 0.89011,1.05661 6.67895,0.51536 0,-0.003 m 6.7,1.76 c 5.15637,1.12695 -2.77454,-1.20563 0,-0.002 m 7.9,1.48 c 3.5064,0.57911 0.72702,-0.61436 0,-0.002 m 13.79,1.21 c 8.44097,0.53113 1.68189,-0.53278 0,0 z m 10.81,0.002 c 6.12556,0.34587 5.53509,-0.43037 0.01,0"
       id="path65" />
    <path
       fill="#fbc919"
       d="m 265.19,60.48 c -5.07385,7.417477 -12.26981,30.536168 2.405,15.631 9.55598,-4.165195 5.64554,-14.884681 -2.398,-15.617 M 307.5,71.15 c 8.03672,3.583506 27.75414,13.392066 16.1285,5.229125 C 323.75387,76.103436 296.57693,65.987818 307.5,71.15 Z M 173.01,82.38 c 0.73502,7.103301 -1.73277,21.83362 1.35325,27.36491 4.95096,8.54402 22.39117,34.70831 18.06986,10.19 -3.7267,-13.22938 5.9605,-34.264936 -13.40811,-34.74791 -2.94776,0.951272 -3.5484,-3.253706 -6.017,-2.826 M 304.2,92.19 c 7.08213,3.531074 23.12963,18.06868 9.432,4.893 0.0714,-2.061732 -14.29214,-8.562107 -9.432,-4.893 z M 195.29,198.4 c 0.32182,2.50336 0.32182,-2.50336 0,0 z m 135.36,2.08 c -0.68729,3.07433 1.76269,-2.44894 0,-0.007 m -134.88,3.21 c 5.27404,12.77514 -14.00614,36.6786 8.704,33.37875 6.94687,5.53405 -7.9857,11.28836 6.19072,10.38978 14.38288,5.564 37.15219,-22.31246 35.38828,-24.03753 5.01881,-8.78438 -19.59997,-6.87433 -26.38409,-12.62227 -9.04308,3.78745 -4.73765,-14.8197 -7.33791,-0.88473 -1.18748,-4.03637 -20.78405,-9.47199 -11.711,-3.077 -1.38062,6.57538 -5.8874,-9.37469 -4.83,-3.09 m 133.7,-0.916 c 0.22133,2.4301 2.14778,-2.26272 0.004,-0.006 m -1.2,2.01 c -0.15014,3.73431 2.32426,-3.38737 0,0 z m -110.19,4.08 c 6.1881,2.89372 3.81395,-0.57928 0.017,-0.003 m 106.09,3.74 c -3.64797,6.55746 -15.3383,24.13033 -13.803,24.016 4.83472,0.77738 -4.43022,11.5579 -1.5265,1.457 -5.2376,8.4819 -17.69199,28.66013 -13.6575,33.194 10.58156,-5.79556 21.17188,-12.6466 29.66,-19.399 -5.98192,3.00008 3.252,-1.77498 2.38475,-4.70413 -4.36629,-7.44822 0.31399,-24.44693 -1.84275,-34.05887 2.64348,-4.86573 1.90171,-6.54562 -1.283,-0.54 M 223.8,210.33 c 0.79774,2.42347 4.32701,-1.26028 0,0 z M 326,214 c -1.24718,2.20506 3.31852,-1.18354 0,-0.003 m -201.2,17.94 c 5.75542,6.32942 -11.05623,4.30625 4.13075,5.68138 7.78303,1.27277 18.81144,6.9852 5.7475,-2.04588 -2.76893,-1.73352 -6.83931,-4.00557 -9.90125,-3.6505 m 182,13.84 c -0.9198,4.86307 -0.9198,-4.86307 0,0 z m 36.06,1.23 c -17.49642,14.79291 -38.7037,26.86195 -58.6555,36.41138 17.27825,1.26514 35.496,-2.08682 51.54212,-8.73901 0.69544,-6.76332 8.59844,-25.31065 -1.42762,-16.14737 -3.65827,-1.58697 16.35254,-16.35819 8.548,-11.54 m -36.73,1.32 c -1.3278,2.10409 -0.90809,-2.02479 -0.004,-0.003 m 22.26,1.08 c 0.65823,1.38143 1.73395,-2.15919 0,-0.01 m -188.6,0.5 c -9.49249,12.17148 29.65509,2.56606 5.57078,-0.11069 L 141.57,249.533 l -1.8,0.31 m 203.4,3.84 c -6.3907,5.21301 4.29096,-1.43958 -0.002,-0.02 m -148.95,10.52 c 15.64401,23.58619 30.46987,48.75087 52.17999,67.45756 4.08802,3.05653 23.89803,3.509 12.36467,0.1628 -8.12077,-4.61086 33.99618,6.30366 24.08534,-2.41936 -0.63783,-4.25602 -10.87984,-6.53269 -9.061,-9.9 -3.24014,-0.80951 -6.34886,-5.71008 -11.237,-9.325 -18.87588,-19.6535 -46.70722,-27.6292 -67.235,-45.55 l -1.09,-0.385 M 335,295.2 c 0.80997,1.45093 2.84544,-1.89023 0.004,0 m -1.8,0.4 c 2.83409,1.22115 -0.71385,-1.41646 0,-0.004 m -73.63,0.706 c 20.23561,17.46636 48.71233,25.34785 75.3,22.94 -1.74854,-1.73944 5.24974,-17.68528 1.413,-20.583 -0.29102,-0.68028 -9.99981,1.15956 -4.084,-2.945 -23.907,4.1421 -49.07091,4.49784 -72.617,0.564 m 68.77,0.849 c -0.92595,1.83242 -3.8208,-1.04317 0.002,-0.007 m 4.85,2.24 c -0.99173,2.10759 -0.99173,-2.10759 0,0 z m -57.18,22.47 c 3.19227,5.09657 -0.73619,-3.59653 0,0 z m -11.83,12.15 c 7.26318,2.84625 20.34583,2.09516 17.96303,0.28977 1.93677,-0.53709 -15.83095,0.0232 -17.94903,-0.30477 M 277,335.2 c -1.45791,1.50327 -2.21613,-1.46397 -0.01,0 m -67.59,91.59 c 3.17946,1.35555 3.43351,-0.65746 0,0 z"
       id="path67" />
  </g>
</svg>
